<?xml version="1.0" encoding="UTF-8"?>
<svg id="Calque_1" xmlns="http://www.w3.org/2000/svg" viewBox="0 0 512 512">
  <defs>
    <style>
      .cls-1 {
        fill: #265f5d;
      }

      .cls-2 {
        fill: #6cc3c4;
      }
    </style>
  </defs>
  <path class="cls-1" d="M343.28,483.75V223.8h80.1v259.94h-80.1Z"/>
  <g>
    <path class="cls-2" d="M351.07,167.59L468.12,28.25l32.34,27.16-117.05,139.34-32.34-27.16Z"/>
    <path class="cls-2" d="M383.41,194.82l-92.29-77.44,27.15-32.35,92.29,77.44-27.15,32.35Z"/>
  </g>
  <path class="cls-1" d="M11.54,482.87V199.7h98.74c50.29,0,88,11.49,113.15,34.46,25.14,22.97,37.72,57.5,37.72,103.57s-13.76,79.32-41.27,105.65c-27.52,26.33-64.11,39.49-109.79,39.49H11.54ZM73.15,250.05v182.66h32.19c28.3,0,50.49-8.39,66.55-25.18,16.06-16.79,24.09-39.79,24.09-69.02,0-27.65-7.9-49.3-23.7-64.97-15.8-15.67-38.11-23.5-66.94-23.5h-32.19Z"/>
</svg>